<svg width="52" height="50" viewBox="0 0 52 50" fill="none" xmlns="http://www.w3.org/2000/svg">
<path d="M4 49H39L51 37V4C51 3.20435 50.6839 2.44129 50.1213 1.87868C49.5587 1.31607 48.7956 1 48 1H4C3.20435 1 2.44129 1.31607 1.87868 1.87868C1.31607 2.44129 1 3.20435 1 4V46C1 46.7956 1.31607 47.5587 1.87868 48.1213C2.44129 48.6839 3.20435 49 4 49Z" fill="#F9E3AE"/>
<path d="M21 49L50.56 19.44L50 6L7 49H21ZM1 46C1.00076 46.5849 1.17249 47.1569 1.49408 47.6455C1.81566 48.1341 2.27306 48.518 2.81 48.75L49.38 2.19L48.54 1.06C48.3622 1.02371 48.1814 1.00363 48 1H44L1 44V46ZM1 39L39 1H35L1 35V39Z" fill="#FFEFCA"/>
<path d="M38.5 28L39.74 30.26L42 31.5L39.74 32.74L38.5 35L37.26 32.74L35 31.5L37.26 30.26L38.5 28ZM25.42 13L26.27 14.56L27.84 15.42L26.27 16.27L25.42 17.84L24.56 16.27L23 15.42L24.56 14.56L25.42 13Z" fill="#FFF8F8"/>
<path d="M39 49V37H51L39 49Z" fill="#BBDEF9"/>
<path d="M49 0H3C2.20435 0 1.44129 0.316071 0.87868 0.87868C0.316071 1.44129 0 2.20435 0 3V47C0 47.7956 0.316071 48.5587 0.87868 49.1213C1.44129 49.6839 2.20435 50 3 50H38.34C38.997 50.0012 39.6479 49.8728 40.2553 49.6223C40.8627 49.3718 41.4148 49.004 41.88 48.54L50.54 39.88C51.004 39.4148 51.3718 38.8627 51.6223 38.2553C51.8728 37.6479 52.0012 36.997 52 36.34V3C52 2.20435 51.6839 1.44129 51.1213 0.87868C50.5587 0.316071 49.7956 0 49 0ZM3 48C2.73478 48 2.48043 47.8946 2.29289 47.7071C2.10536 47.5196 2 47.2652 2 47V3C2 2.73478 2.10536 2.48043 2.29289 2.29289C2.48043 2.10536 2.73478 2 3 2H49C49.2652 2 49.5196 2.10536 49.7071 2.29289C49.8946 2.48043 50 2.73478 50 3V36H41C40.2044 36 39.4413 36.3161 38.8787 36.8787C38.3161 37.4413 38 38.2044 38 39V48H3ZM40.46 47.12C40.3049 47.2714 40.1339 47.4055 39.95 47.52V39C39.95 38.7348 40.0554 38.4804 40.2429 38.2929C40.4304 38.1054 40.6848 38 40.95 38H49.52C49.4055 38.1839 49.2714 38.3549 49.12 38.51L40.46 47.12Z" fill="#8D6C9F"/>
<path d="M6 4C5.73478 4 5.48043 4.10536 5.29289 4.29289C5.10536 4.48043 5 4.73478 5 5V7C5 7.26522 5.10536 7.51957 5.29289 7.70711C5.48043 7.89464 5.73478 8 6 8C6.26522 8 6.51957 7.89464 6.70711 7.70711C6.89464 7.51957 7 7.26522 7 7V5C7 4.73478 6.89464 4.48043 6.70711 4.29289C6.51957 4.10536 6.26522 4 6 4ZM11 8C11.2652 8 11.5196 7.89464 11.7071 7.70711C11.8946 7.51957 12 7.26522 12 7V5C12 4.73478 11.8946 4.48043 11.7071 4.29289C11.5196 4.10536 11.2652 4 11 4C10.7348 4 10.4804 4.10536 10.2929 4.29289C10.1054 4.48043 10 4.73478 10 5V7C10 7.26522 10.1054 7.51957 10.2929 7.70711C10.4804 7.89464 10.7348 8 11 8ZM16 8C16.2652 8 16.5196 7.89464 16.7071 7.70711C16.8946 7.51957 17 7.26522 17 7V5C17 4.73478 16.8946 4.48043 16.7071 4.29289C16.5196 4.10536 16.2652 4 16 4C15.7348 4 15.4804 4.10536 15.2929 4.29289C15.1054 4.48043 15 4.73478 15 5V7C15 7.26522 15.1054 7.51957 15.2929 7.70711C15.4804 7.89464 15.7348 8 16 8ZM21 8C21.2652 8 21.5196 7.89464 21.7071 7.70711C21.8946 7.51957 22 7.26522 22 7V5C22 4.73478 21.8946 4.48043 21.7071 4.29289C21.5196 4.10536 21.2652 4 21 4C20.7348 4 20.4804 4.10536 20.2929 4.29289C20.1054 4.48043 20 4.73478 20 5V7C20 7.26522 20.1054 7.51957 20.2929 7.70711C20.4804 7.89464 20.7348 8 21 8ZM26 8C26.2652 8 26.5196 7.89464 26.7071 7.70711C26.8946 7.51957 27 7.26522 27 7V5C27 4.73478 26.8946 4.48043 26.7071 4.29289C26.5196 4.10536 26.2652 4 26 4C25.7348 4 25.4804 4.10536 25.2929 4.29289C25.1054 4.48043 25 4.73478 25 5V7C25 7.26522 25.1054 7.51957 25.2929 7.70711C25.4804 7.89464 25.7348 8 26 8ZM31 8C31.2652 8 31.5196 7.89464 31.7071 7.70711C31.8946 7.51957 32 7.26522 32 7V5C32 4.73478 31.8946 4.48043 31.7071 4.29289C31.5196 4.10536 31.2652 4 31 4C30.7348 4 30.4804 4.10536 30.2929 4.29289C30.1054 4.48043 30 4.73478 30 5V7C30 7.26522 30.1054 7.51957 30.2929 7.70711C30.4804 7.89464 30.7348 8 31 8ZM36 8C36.2652 8 36.5196 7.89464 36.7071 7.70711C36.8946 7.51957 37 7.26522 37 7V5C37 4.73478 36.8946 4.48043 36.7071 4.29289C36.5196 4.10536 36.2652 4 36 4C35.7348 4 35.4804 4.10536 35.2929 4.29289C35.1054 4.48043 35 4.73478 35 5V7C35 7.26522 35.1054 7.51957 35.2929 7.70711C35.4804 7.89464 35.7348 8 36 8ZM41 8C41.2652 8 41.5196 7.89464 41.7071 7.70711C41.8946 7.51957 42 7.26522 42 7V5C42 4.73478 41.8946 4.48043 41.7071 4.29289C41.5196 4.10536 41.2652 4 41 4C40.7348 4 40.4804 4.10536 40.2929 4.29289C40.1054 4.48043 40 4.73478 40 5V7C40 7.26522 40.1054 7.51957 40.2929 7.70711C40.4804 7.89464 40.7348 8 41 8ZM46 8C46.2652 8 46.5196 7.89464 46.7071 7.70711C46.8946 7.51957 47 7.26522 47 7V5C47 4.73478 46.8946 4.48043 46.7071 4.29289C46.5196 4.10536 46.2652 4 46 4C45.7348 4 45.4804 4.10536 45.2929 4.29289C45.1054 4.48043 45 4.73478 45 5V7C45 7.26522 45.1054 7.51957 45.2929 7.70711C45.4804 7.89464 45.7348 8 46 8Z" fill="#8D6C9F"/>
<path d="M40 23C40 22.7348 39.8946 22.4804 39.7071 22.2929C39.5196 22.1054 39.2652 22 39 22H33C32.7348 22 32.4804 22.1054 32.2929 22.2929C32.1054 22.4804 32 22.7348 32 23C32 23.2652 32.1054 23.5196 32.2929 23.7071C32.4804 23.8946 32.7348 24 33 24H39C39.2652 24 39.5196 23.8946 39.7071 23.7071C39.8946 23.5196 40 23.2652 40 23ZM11 24H29C29.2652 24 29.5196 23.8946 29.7071 23.7071C29.8946 23.5196 30 23.2652 30 23C30 22.7348 29.8946 22.4804 29.7071 22.2929C29.5196 22.1054 29.2652 22 29 22H11C10.7348 22 10.4804 22.1054 10.2929 22.2929C10.1054 22.4804 10 22.7348 10 23C10 23.2652 10.1054 23.5196 10.2929 23.7071C10.4804 23.8946 10.7348 24 11 24ZM33 28H11C10.7348 28 10.4804 28.1054 10.2929 28.2929C10.1054 28.4804 10 28.7348 10 29C10 29.2652 10.1054 29.5196 10.2929 29.7071C10.4804 29.8946 10.7348 30 11 30H33C33.2652 30 33.5196 29.8946 33.7071 29.7071C33.8946 29.5196 34 29.2652 34 29C34 28.7348 33.8946 28.4804 33.7071 28.2929C33.5196 28.1054 33.2652 28 33 28Z" fill="#ED7899"/>
<path d="M8.65 36L9.23 37.06L10.3 37.65L9.23 38.23L8.65 39.3L8.06 38.23L7 37.65L8.06 37.06L8.65 36Z" fill="#FFF8F8"/>
</svg>
