<svg width="52" height="52" viewBox="0 0 52 52" fill="none" xmlns="http://www.w3.org/2000/svg">
<path d="M24.8095 1C21.6828 1 18.5867 1.64664 15.698 2.90301C12.8093 4.15938 10.1846 6.00087 7.97365 8.32233C5.76273 10.6438 4.00893 13.3998 2.81239 16.4329C1.61585 19.4661 0.999999 22.717 0.999999 26C0.999999 29.283 1.61585 32.5339 2.81239 35.5671C4.00893 38.6002 5.76273 41.3562 7.97365 43.6777C10.1846 45.9991 12.8093 47.8406 15.698 49.097C18.5867 50.3534 21.6828 51 24.8095 51C27.9362 51 31.0323 50.3534 33.921 49.097C36.8097 47.8406 39.4345 45.9991 41.6454 43.6777C43.8563 41.3562 45.6101 38.6002 46.8067 35.5671C48.0032 32.5339 48.619 29.283 48.619 26C48.619 22.717 48.0032 19.4661 46.8067 16.4329C45.6101 13.3998 43.8563 10.6438 41.6454 8.32233C39.4345 6.00087 36.8097 4.15938 33.921 2.90301C31.0323 1.64664 27.9362 1 24.8095 1Z" fill="#F15B6C"/>
<path d="M50.6442 25.1864L44.5218 19.4721C44.0925 19.0871 43.4497 19.1393 43.083 19.5879C42.7163 20.0371 42.7653 20.7136 43.1932 21.0986L47.2714 24.9279H24.1293C23.566 24.9279 23.1088 25.4079 23.1088 25.9993C23.1088 26.5907 23.566 27.0707 24.1293 27.0707H47.2707L43.1925 30.9C42.7646 31.285 42.7156 31.9614 43.0823 32.4107C43.2844 32.6579 43.5701 32.7843 43.8578 32.7843C44.0932 32.7843 44.3286 32.7 44.5218 32.5264L50.6442 26.8121C50.8701 26.6093 51 26.3121 51 26C51 25.6879 50.8701 25.39 50.6442 25.1864Z" fill="#FEFDEF"/>
<path d="M47.183 17.4286C43.851 7.84286 35.0912 1 24.8095 1C11.6599 1 1 12.1929 1 26C1 39.8071 11.6599 51 24.8095 51C35.0912 51 43.851 44.1571 47.183 34.5714" stroke="#1F212B" stroke-width="2" stroke-miterlimit="10" stroke-linecap="round"/>
<path d="M35.3537 7.23357C34.9102 6.95857 34.4565 6.7 33.9932 6.45929M37.3946 8.67786C37.1714 8.49857 36.9442 8.32429 36.7143 8.155M43.4463 16.4336C42.2891 13.9614 40.6939 11.725 38.7551 9.86929M31.9524 5.54C20.0531 0.985716 6.45646 9.35857 4.3449 22.4629C2.19388 35.8093 12.8878 48.2014 25.6816 47.7479C33.2279 47.4807 40.1163 42.6293 43.4463 35.5514" stroke="#1F212B" stroke-miterlimit="10" stroke-linecap="round" stroke-linejoin="round"/>
<path d="M50.6442 25.1864L44.5218 19.4721C44.0925 19.0871 43.4497 19.1393 43.083 19.5879C42.7163 20.0371 42.7653 20.7136 43.1932 21.0986L47.2714 24.9279H24.1293C23.566 24.9279 23.1088 25.4079 23.1088 25.9993C23.1088 26.5907 23.566 27.0707 24.1293 27.0707H47.2707L43.1925 30.9C42.7646 31.285 42.7156 31.9614 43.0823 32.4107C43.2844 32.6579 43.5701 32.7843 43.8578 32.7843C44.0932 32.7843 44.3286 32.7 44.5218 32.5264L50.6442 26.8121C50.8701 26.6093 51 26.3121 51 26C51 25.6879 50.8701 25.39 50.6442 25.1864Z" stroke="#1F212B" stroke-miterlimit="10" stroke-linejoin="round"/>
</svg>
